<?xml version="1.0" encoding="UTF-8"?>
<!DOCTYPE svg PUBLIC "-//W3C//DTD SVG 1.1//EN" "http://www.w3.org/Graphics/SVG/1.1/DTD/svg11.dtd">
<svg xmlns="http://www.w3.org/2000/svg" version="1.1" width="2363px" height="2363px" style="shape-rendering:geometricPrecision; text-rendering:geometricPrecision; image-rendering:optimizeQuality; fill-rule:evenodd; clip-rule:evenodd" xmlns:xlink="http://www.w3.org/1999/xlink">
<g><path style="opacity:0.985" fill="#233a7b" d="M 786.5,557.5 C 786.5,573.833 786.5,590.167 786.5,606.5C 784.5,606.5 782.5,606.5 780.5,606.5C 780.5,590.167 780.5,573.833 780.5,557.5C 782.5,557.5 784.5,557.5 786.5,557.5 Z"/></g>
<g><path style="opacity:0.985" fill="#1e4585" d="M 786.5,557.5 C 788.833,557.5 791.167,557.5 793.5,557.5C 793.5,573.833 793.5,590.167 793.5,606.5C 791.167,606.5 788.833,606.5 786.5,606.5C 786.5,590.167 786.5,573.833 786.5,557.5 Z"/></g>
<g><path style="opacity:0.985" fill="#195390" d="M 793.5,557.5 C 796.167,557.5 798.833,557.5 801.5,557.5C 801.5,573.833 801.5,590.167 801.5,606.5C 798.833,606.5 796.167,606.5 793.5,606.5C 793.5,590.167 793.5,573.833 793.5,557.5 Z"/></g>
<g><path style="opacity:0.985" fill="#145e99" d="M 801.5,557.5 C 803.167,557.5 804.833,557.5 806.5,557.5C 806.5,573.833 806.5,590.167 806.5,606.5C 804.833,606.5 803.167,606.5 801.5,606.5C 801.5,590.167 801.5,573.833 801.5,557.5 Z"/></g>
<g><path style="opacity:0.985" fill="#0f6ba4" d="M 806.5,557.5 C 808.833,557.5 811.167,557.5 813.5,557.5C 813.5,573.833 813.5,590.167 813.5,606.5C 811.167,606.5 808.833,606.5 806.5,606.5C 806.5,590.167 806.5,573.833 806.5,557.5 Z"/></g>
<g><path style="opacity:0.985" fill="#0a78af" d="M 813.5,557.5 C 815.5,557.5 817.5,557.5 819.5,557.5C 819.5,573.833 819.5,590.167 819.5,606.5C 817.5,606.5 815.5,606.5 813.5,606.5C 813.5,590.167 813.5,573.833 813.5,557.5 Z"/></g>
<g><path style="opacity:0.985" fill="#0486bb" d="M 819.5,557.5 C 822.833,557.5 826.167,557.5 829.5,557.5C 829.5,573.833 829.5,590.167 829.5,606.5C 826.167,606.5 822.833,606.5 819.5,606.5C 819.5,590.167 819.5,573.833 819.5,557.5 Z"/></g>
<g><path style="opacity:0.991" fill="#ee7722" d="M 1048.5,581.5 C 1048.5,593.167 1048.5,604.833 1048.5,616.5C 1044.62,617.458 1040.95,618.791 1037.5,620.5C 1028.18,622.995 1019.18,626.328 1010.5,630.5C 1010.5,614.833 1010.5,599.167 1010.5,583.5C 1023.12,582.042 1035.78,581.375 1048.5,581.5 Z"/></g>
<g><path style="opacity:0.987" fill="#ec6d25" d="M 1048.5,581.5 C 1058.56,581.505 1068.56,582.172 1078.5,583.5C 1078.5,592.833 1078.5,602.167 1078.5,611.5C 1068.46,612.951 1058.46,614.617 1048.5,616.5C 1048.5,604.833 1048.5,593.167 1048.5,581.5 Z"/></g>
<g><path style="opacity:0.992" fill="#f0801f" d="M 1010.5,583.5 C 1010.5,599.167 1010.5,614.833 1010.5,630.5C 1002.85,633.992 995.513,637.992 988.5,642.5C 988.5,624.167 988.5,605.833 988.5,587.5C 995.787,585.952 1003.12,584.619 1010.5,583.5 Z"/></g>
<g><path style="opacity:0.976" fill="#ec6625" d="M 1078.5,583.5 C 1091.67,584.933 1104.67,587.267 1117.5,590.5C 1117.5,597.167 1117.5,603.833 1117.5,610.5C 1106.65,610.172 1095.99,610.506 1085.5,611.5C 1083.17,611.5 1080.83,611.5 1078.5,611.5C 1078.5,602.167 1078.5,592.833 1078.5,583.5 Z"/></g>
<g><path style="opacity:0.992" fill="#f1861d" d="M 988.5,587.5 C 988.5,605.833 988.5,624.167 988.5,642.5C 982.228,646.108 976.228,650.108 970.5,654.5C 970.5,633.5 970.5,612.5 970.5,591.5C 976.5,590.167 982.5,588.833 988.5,587.5 Z"/></g>
<g><path style="opacity:0.994" fill="#eb6026" d="M 1117.5,590.5 C 1141.74,597.247 1164.74,606.913 1186.5,619.5C 1186.5,622.167 1186.5,624.833 1186.5,627.5C 1185.83,627.5 1185.17,627.5 1184.5,627.5C 1177.39,624.239 1170.05,621.573 1162.5,619.5C 1154.34,617.264 1146.01,615.264 1137.5,613.5C 1118.57,645.697 1099.9,678.031 1081.5,710.5C 1066.66,707.516 1051.66,706.183 1036.5,706.5C 1054.04,674.943 1072.04,643.61 1090.5,612.5C 1088.95,611.548 1087.29,611.215 1085.5,611.5C 1095.99,610.506 1106.65,610.172 1117.5,610.5C 1117.5,603.833 1117.5,597.167 1117.5,590.5 Z"/></g>
<g><path style="opacity:0.993" fill="#f28c1b" d="M 970.5,591.5 C 970.5,612.5 970.5,633.5 970.5,654.5C 964.192,659.804 957.858,665.137 951.5,670.5C 951.5,646.5 951.5,622.5 951.5,598.5C 957.585,595.72 963.918,593.387 970.5,591.5 Z"/></g>
<g><path style="opacity:0.993" fill="#f39319" d="M 951.5,598.5 C 951.5,622.5 951.5,646.5 951.5,670.5C 944.436,677.56 937.769,684.893 931.5,692.5C 931.5,663.833 931.5,635.167 931.5,606.5C 937.864,603.263 944.53,600.597 951.5,598.5 Z"/></g>
<g><path style="opacity:0.994" fill="#f49917" d="M 931.5,606.5 C 931.5,635.167 931.5,663.833 931.5,692.5C 924.57,702.7 917.904,713.033 911.5,723.5C 911.5,687.833 911.5,652.167 911.5,616.5C 917.849,612.659 924.516,609.325 931.5,606.5 Z"/></g>
<g><path style="opacity:0.994" fill="#ea5a26" d="M 1078.5,611.5 C 1080.83,611.5 1083.17,611.5 1085.5,611.5C 1087.29,611.215 1088.95,611.548 1090.5,612.5C 1072.04,643.61 1054.04,674.943 1036.5,706.5C 1016.89,708.068 998.226,713.068 980.5,721.5C 999.431,687.81 1018.76,654.31 1038.5,621C 1038.27,620.601 1037.94,620.435 1037.5,620.5C 1040.95,618.791 1044.62,617.458 1048.5,616.5C 1058.46,614.617 1068.46,612.951 1078.5,611.5 Z"/></g>
<g><path style="opacity:0.996" fill="#eb6526" d="M 1162.5,619.5 C 1142.42,651.972 1123.09,684.972 1104.5,718.5C 1096.89,715.41 1089.23,712.743 1081.5,710.5C 1099.9,678.031 1118.57,645.697 1137.5,613.5C 1146.01,615.264 1154.34,617.264 1162.5,619.5 Z"/></g>
<g><path style="opacity:0.995" fill="#f69f15" d="M 911.5,616.5 C 911.5,652.167 911.5,687.833 911.5,723.5C 904.351,737.785 898.351,752.452 893.5,767.5C 893.5,720.833 893.5,674.167 893.5,627.5C 899.13,623.346 905.13,619.679 911.5,616.5 Z"/></g>
<g><path style="opacity:0.996" fill="#eb6825" d="M 1162.5,619.5 C 1170.05,621.573 1177.39,624.239 1184.5,627.5C 1164.83,661.5 1145.17,695.5 1125.5,729.5C 1118.94,725.054 1111.94,721.387 1104.5,718.5C 1123.09,684.972 1142.42,651.972 1162.5,619.5 Z"/></g>
<g><path style="opacity:0.881" fill="#e95526" d="M 1186.5,619.5 C 1203.31,629.237 1218.64,640.904 1232.5,654.5C 1227.43,650.771 1222.1,647.438 1216.5,644.5C 1206.99,638 1196.99,632.334 1186.5,627.5C 1186.5,624.833 1186.5,622.167 1186.5,619.5 Z"/></g>
<g><path style="opacity:0.987" fill="#e95326" d="M 1037.5,620.5 C 1037.94,620.435 1038.27,620.601 1038.5,621C 1018.76,654.31 999.431,687.81 980.5,721.5C 926.11,750.465 897.443,795.965 894.5,858C 895.206,876.361 898.539,894.195 904.5,911.5C 900.046,902.472 896.38,893.138 893.5,883.5C 884.182,844.834 884.182,806.168 893.5,767.5C 898.351,752.452 904.351,737.785 911.5,723.5C 917.904,713.033 924.57,702.7 931.5,692.5C 937.769,684.893 944.436,677.56 951.5,670.5C 957.858,665.137 964.192,659.804 970.5,654.5C 976.228,650.108 982.228,646.108 988.5,642.5C 995.513,637.992 1002.85,633.992 1010.5,630.5C 1019.18,626.328 1028.18,622.995 1037.5,620.5 Z"/></g>
<g><path style="opacity:0.996" fill="#f7a513" d="M 893.5,627.5 C 893.5,674.167 893.5,720.833 893.5,767.5C 884.182,806.168 884.182,844.834 893.5,883.5C 893.5,903.5 893.5,923.5 893.5,943.5C 887.167,943.5 880.833,943.5 874.5,943.5C 874.5,842.833 874.5,742.167 874.5,641.5C 880.262,636.113 886.595,631.446 893.5,627.5 Z"/></g>
<g><path style="opacity:0.995" fill="#ec6d25" d="M 1184.5,627.5 C 1185.17,627.5 1185.83,627.5 1186.5,627.5C 1196.99,632.334 1206.99,638 1216.5,644.5C 1196.26,680.741 1175.59,716.741 1154.5,752.5C 1145.7,743.691 1136.03,736.025 1125.5,729.5C 1145.17,695.5 1164.83,661.5 1184.5,627.5 Z"/></g>
<g><path style="opacity:0.992" fill="#f8ab11" d="M 874.5,641.5 C 874.5,742.167 874.5,842.833 874.5,943.5C 873.5,943.5 872.5,943.5 871.5,943.5C 871.5,964.833 871.5,986.167 871.5,1007.5C 872.5,1007.5 873.5,1007.5 874.5,1007.5C 874.5,1029.83 874.5,1052.17 874.5,1074.5C 868.177,1069.51 862.177,1064.18 856.5,1058.5C 856.5,982.5 856.5,906.5 856.5,830.5C 857.833,830.5 859.167,830.5 860.5,830.5C 860.5,814.833 860.5,799.167 860.5,783.5C 859.167,783.5 857.833,783.5 856.5,783.5C 856.5,741.167 856.5,698.833 856.5,656.5C 861.891,650.776 867.891,645.776 874.5,641.5 Z"/></g>
<g><path style="opacity:0.956" fill="#f0802c" d="M 727.5,647.5 C 727.5,691.5 727.5,735.5 727.5,779.5C 725.167,779.5 722.833,779.5 720.5,779.5C 720.5,748.5 720.5,717.5 720.5,686.5C 721.833,686.5 723.167,686.5 724.5,686.5C 724.5,673.5 724.5,660.5 724.5,647.5C 725.5,647.5 726.5,647.5 727.5,647.5 Z"/></g>
<g><path style="opacity:0.996" fill="#f1862f" d="M 727.5,647.5 C 730.167,647.5 732.833,647.5 735.5,647.5C 735.5,691.5 735.5,735.5 735.5,779.5C 732.833,779.5 730.167,779.5 727.5,779.5C 727.5,735.5 727.5,691.5 727.5,647.5 Z"/></g>
<g><path style="opacity:0.94" fill="#f28c32" d="M 735.5,647.5 C 737.833,647.5 740.167,647.5 742.5,647.5C 742.5,666.5 742.5,685.5 742.5,704.5C 742.5,729.5 742.5,754.5 742.5,779.5C 740.167,779.5 737.833,779.5 735.5,779.5C 735.5,735.5 735.5,691.5 735.5,647.5 Z"/></g>
<g><path style="opacity:0.991" fill="#f49636" d="M 742.5,647.5 C 747.5,647.5 752.5,647.5 757.5,647.5C 757.5,666.5 757.5,685.5 757.5,704.5C 752.5,704.5 747.5,704.5 742.5,704.5C 742.5,685.5 742.5,666.5 742.5,647.5 Z"/></g>
<g><path style="opacity:0.991" fill="#f6a33b" d="M 757.5,647.5 C 762.833,647.5 768.167,647.5 773.5,647.5C 773.5,666.5 773.5,685.5 773.5,704.5C 768.167,704.5 762.833,704.5 757.5,704.5C 757.5,685.5 757.5,666.5 757.5,647.5 Z"/></g>
<g><path style="opacity:0.991" fill="#f8ab3f" d="M 773.5,647.5 C 776.167,647.5 778.833,647.5 781.5,647.5C 781.5,666.5 781.5,685.5 781.5,704.5C 778.833,704.5 776.167,704.5 773.5,704.5C 773.5,685.5 773.5,666.5 773.5,647.5 Z"/></g>
<g><path style="opacity:0.993" fill="#ed7326" d="M 1216.5,644.5 C 1222.1,647.438 1227.43,650.771 1232.5,654.5C 1236.7,657.125 1240.37,660.458 1243.5,664.5C 1221.67,703.501 1199.34,742.168 1176.5,780.5C 1169.66,770.843 1162.33,761.509 1154.5,752.5C 1175.59,716.741 1196.26,680.741 1216.5,644.5 Z"/></g>
<g><path style="opacity:0.987" fill="#f9b010" d="M 856.5,656.5 C 856.5,698.833 856.5,741.167 856.5,783.5C 848.833,783.5 841.167,783.5 833.5,783.5C 833.5,766.833 833.5,750.167 833.5,733.5C 838.5,733.5 843.5,733.5 848.5,733.5C 848.333,710.164 848.5,686.831 849,663.5C 851.37,660.961 853.87,658.628 856.5,656.5 Z"/></g>
<g><path style="opacity:0.991" fill="#ef7a29" d="M 1243.5,664.5 C 1253.22,674.555 1262.22,685.222 1270.5,696.5C 1244.93,739.968 1219.6,783.634 1194.5,827.5C 1192.33,819.525 1189.83,811.525 1187,803.5C 1183.49,795.812 1179.99,788.145 1176.5,780.5C 1199.34,742.168 1221.67,703.501 1243.5,664.5 Z"/></g>
<g><path style="opacity:0.992" fill="#e95326" d="M 664.5,686.5 C 664.5,717.5 664.5,748.5 664.5,779.5C 659.5,779.5 654.5,779.5 649.5,779.5C 649.5,748.5 649.5,717.5 649.5,686.5C 654.5,686.5 659.5,686.5 664.5,686.5 Z"/></g>
<g><path style="opacity:0.992" fill="#ea5a26" d="M 664.5,686.5 C 667.5,686.5 670.5,686.5 673.5,686.5C 673.5,717.5 673.5,748.5 673.5,779.5C 670.5,779.5 667.5,779.5 664.5,779.5C 664.5,748.5 664.5,717.5 664.5,686.5 Z"/></g>
<g><path style="opacity:0.992" fill="#eb6026" d="M 673.5,686.5 C 676.833,686.5 680.167,686.5 683.5,686.5C 683.5,717.5 683.5,748.5 683.5,779.5C 680.167,779.5 676.833,779.5 673.5,779.5C 673.5,748.5 673.5,717.5 673.5,686.5 Z"/></g>
<g><path style="opacity:0.992" fill="#ec6725" d="M 683.5,686.5 C 687.167,686.5 690.833,686.5 694.5,686.5C 694.5,717.5 694.5,748.5 694.5,779.5C 690.833,779.5 687.167,779.5 683.5,779.5C 683.5,748.5 683.5,717.5 683.5,686.5 Z"/></g>
<g><path style="opacity:0.992" fill="#ed6f25" d="M 694.5,686.5 C 700.167,686.5 705.833,686.5 711.5,686.5C 711.5,717.5 711.5,748.5 711.5,779.5C 705.833,779.5 700.167,779.5 694.5,779.5C 694.5,748.5 694.5,717.5 694.5,686.5 Z"/></g>
<g><path style="opacity:0.992" fill="#ef7a29" d="M 711.5,686.5 C 714.5,686.5 717.5,686.5 720.5,686.5C 720.5,717.5 720.5,748.5 720.5,779.5C 717.5,779.5 714.5,779.5 711.5,779.5C 711.5,748.5 711.5,717.5 711.5,686.5 Z"/></g>
<g><path style="opacity:1" fill="#213d7e" d="M 801.5,686.5 C 801.5,697.833 801.5,709.167 801.5,720.5C 799.5,720.5 797.5,720.5 795.5,720.5C 795.5,709.167 795.5,697.833 795.5,686.5C 797.5,686.5 799.5,686.5 801.5,686.5 Z"/></g>
<g><path style="opacity:1" fill="#1c4b8a" d="M 801.5,686.5 C 803.5,686.5 805.5,686.5 807.5,686.5C 807.5,697.833 807.5,709.167 807.5,720.5C 805.5,720.5 803.5,720.5 801.5,720.5C 801.5,709.167 801.5,697.833 801.5,686.5 Z"/></g>
<g><path style="opacity:1" fill="#165b97" d="M 807.5,686.5 C 809.5,686.5 811.5,686.5 813.5,686.5C 813.5,697.833 813.5,709.167 813.5,720.5C 811.5,720.5 809.5,720.5 807.5,720.5C 807.5,709.167 807.5,697.833 807.5,686.5 Z"/></g>
<g><path style="opacity:1" fill="#0f6ba4" d="M 813.5,686.5 C 815.5,686.5 817.5,686.5 819.5,686.5C 819.5,697.833 819.5,709.167 819.5,720.5C 817.5,720.5 815.5,720.5 813.5,720.5C 813.5,709.167 813.5,697.833 813.5,686.5 Z"/></g>
<g><path style="opacity:1" fill="#0586bb" d="M 819.5,686.5 C 823.167,686.5 826.833,686.5 830.5,686.5C 830.5,697.833 830.5,709.167 830.5,720.5C 826.833,720.5 823.167,720.5 819.5,720.5C 819.5,709.167 819.5,697.833 819.5,686.5 Z"/></g>
<g><path style="opacity:0.991" fill="#f0802c" d="M 1270.5,696.5 C 1277.25,705.663 1283.25,715.33 1288.5,725.5C 1256.83,779.5 1225.17,833.5 1193.5,887.5C 1197.14,867.586 1197.48,847.586 1194.5,827.5C 1219.6,783.634 1244.93,739.968 1270.5,696.5 Z"/></g>
<g><path style="opacity:0.99" fill="#f1862f" d="M 1288.5,725.5 C 1294.64,736.774 1299.97,748.44 1304.5,760.5C 1254.17,847.167 1203.83,933.833 1153.5,1020.5C 1151.13,998.377 1154.3,977.044 1163,956.5C 1170.77,943.065 1178.1,929.398 1185,915.5C 1188.75,906.43 1191.58,897.096 1193.5,887.5C 1225.17,833.5 1256.83,779.5 1288.5,725.5 Z"/></g>
<g><path style="opacity:0.985" fill="#fbbe0b" d="M 815.5,733.5 C 815.5,750.167 815.5,766.833 815.5,783.5C 814.169,790.97 813.502,798.804 813.5,807C 813.502,815.196 814.169,823.03 815.5,830.5C 815.5,844.5 815.5,858.5 815.5,872.5C 809.167,872.5 802.833,872.5 796.5,872.5C 796.5,828.167 796.5,783.833 796.5,739.5C 796.877,737.742 797.544,736.075 798.5,734.5C 804.128,733.505 809.794,733.171 815.5,733.5 Z"/></g>
<g><path style="opacity:0.985" fill="#fab80d" d="M 815.5,733.5 C 821.5,733.5 827.5,733.5 833.5,733.5C 833.5,750.167 833.5,766.833 833.5,783.5C 827.5,783.5 821.5,783.5 815.5,783.5C 815.5,766.833 815.5,750.167 815.5,733.5 Z"/></g>
<g><path style="opacity:0.986" fill="#fdc509" d="M 796.5,739.5 C 796.5,783.833 796.5,828.167 796.5,872.5C 787.833,872.5 779.167,872.5 770.5,872.5C 767.895,825.858 776.562,781.525 796.5,739.5 Z"/></g>
<g><path style="opacity:0.995" fill="#f28a31" d="M 1304.5,760.5 C 1306.56,765.01 1308.23,769.677 1309.5,774.5C 1258.01,862.137 1207.01,950.137 1156.5,1038.5C 1154.66,1032.77 1153.66,1026.77 1153.5,1020.5C 1203.83,933.833 1254.17,847.167 1304.5,760.5 Z"/></g>
<g><path style="opacity:0.996" fill="#f28d32" d="M 1309.5,774.5 C 1312.61,783.958 1314.95,793.625 1316.5,803.5C 1265.41,890.001 1215.08,977.001 1165.5,1064.5C 1164.6,1063.71 1163.93,1062.71 1163.5,1061.5C 1160.16,1054.15 1157.83,1046.48 1156.5,1038.5C 1207.01,950.137 1258.01,862.137 1309.5,774.5 Z"/></g>
<g><path style="opacity:0.987" fill="#165f9a" d="M 1048.5,800.5 C 1048.83,814.677 1048.5,828.677 1047.5,842.5C 1042.99,840.081 1038.66,837.414 1034.5,834.5C 1035.49,823.679 1035.83,812.679 1035.5,801.5C 1039.79,800.705 1044.12,800.372 1048.5,800.5 Z"/></g>
<g><path style="opacity:0.989" fill="#116ca5" d="M 1048.5,800.5 C 1054.77,800.765 1060.77,802.099 1066.5,804.5C 1066.83,821.009 1066.5,837.342 1065.5,853.5C 1059.16,850.332 1053.16,846.665 1047.5,842.5C 1048.5,828.677 1048.83,814.677 1048.5,800.5 Z"/></g>
<g><path style="opacity:0.997" fill="#f29033" d="M 1316.5,803.5 C 1318.34,809.233 1319.34,815.233 1319.5,821.5C 1270.52,906.131 1221.52,990.798 1172.5,1075.5C 1169.81,1072.12 1167.47,1068.46 1165.5,1064.5C 1215.08,977.001 1265.41,890.001 1316.5,803.5 Z"/></g>
<g><path style="opacity:0.99" fill="#1a4f8d" d="M 1035.5,801.5 C 1035.83,812.679 1035.49,823.679 1034.5,834.5C 1032.5,833.5 1030.5,832.5 1028.5,831.5C 1028.44,830.957 1028.11,830.624 1027.5,830.5C 1026.17,848.5 1026.17,866.5 1027.5,884.5C 1028.11,884.376 1028.44,884.043 1028.5,883.5C 1028.83,883.5 1029.17,883.5 1029.5,883.5C 1030.49,892.986 1030.83,902.652 1030.5,912.5C 1025.75,911.258 1021.42,909.258 1017.5,906.5C 1017.5,873.833 1017.5,841.167 1017.5,808.5C 1022.96,805.008 1028.96,802.675 1035.5,801.5 Z"/></g>
<g><path style="opacity:0.987" fill="#0b78af" d="M 1066.5,804.5 C 1070.78,805.975 1074.78,807.975 1078.5,810.5C 1078.5,841.833 1078.5,873.167 1078.5,904.5C 1074.78,907.025 1070.78,909.025 1066.5,910.5C 1066.83,893.991 1066.5,877.658 1065.5,861.5C 1066.91,859.946 1068.58,858.612 1070.5,857.5C 1068.79,856.113 1067.12,854.779 1065.5,853.5C 1066.5,837.342 1066.83,821.009 1066.5,804.5 Z"/></g>
<g><path style="opacity:0.978" fill="#1f4383" d="M 1017.5,808.5 C 1017.5,841.167 1017.5,873.833 1017.5,906.5C 1010.29,903.296 1004.63,898.296 1000.5,891.5C 1000.5,868.833 1000.5,846.167 1000.5,823.5C 1004.63,816.704 1010.29,811.704 1017.5,808.5 Z"/></g>
<g><path style="opacity:0.97" fill="#0583b9" d="M 1078.5,810.5 C 1084.57,814.237 1089.24,819.237 1092.5,825.5C 1092.5,846.833 1092.5,868.167 1092.5,889.5C 1089.24,895.763 1084.57,900.763 1078.5,904.5C 1078.5,873.167 1078.5,841.833 1078.5,810.5 Z"/></g>
<g><path style="opacity:0.997" fill="#f39335" d="M 1319.5,821.5 C 1321.16,832.725 1322.16,844.058 1322.5,855.5C 1276.42,935.331 1230.09,1015 1183.5,1094.5C 1179.08,1088.67 1175.41,1082.33 1172.5,1075.5C 1221.52,990.798 1270.52,906.131 1319.5,821.5 Z"/></g>
<g><path style="opacity:0.966" fill="#028cc0" d="M 1092.5,825.5 C 1099.61,834.837 1102.94,845.504 1102.5,857.5C 1102.94,869.496 1099.61,880.163 1092.5,889.5C 1092.5,868.167 1092.5,846.833 1092.5,825.5 Z"/></g>
<g><path style="opacity:0.998" fill="#223b7d" d="M 622.5,828.5 C 622.5,863.833 622.5,899.167 622.5,934.5C 618.833,934.5 615.167,934.5 611.5,934.5C 611.5,899.167 611.5,863.833 611.5,828.5C 615.167,828.5 618.833,828.5 622.5,828.5 Z"/></g>
<g><path style="opacity:0.998" fill="#1f4383" d="M 622.5,828.5 C 627.5,828.5 632.5,828.5 637.5,828.5C 637.5,863.833 637.5,899.167 637.5,934.5C 632.5,934.5 627.5,934.5 622.5,934.5C 622.5,899.167 622.5,863.833 622.5,828.5 Z"/></g>
<g><path style="opacity:0.998" fill="#1b4d8c" d="M 637.5,828.5 C 640.5,828.5 643.5,828.5 646.5,828.5C 646.5,863.833 646.5,899.167 646.5,934.5C 643.5,934.5 640.5,934.5 637.5,934.5C 637.5,899.167 637.5,863.833 637.5,828.5 Z"/></g>
<g><path style="opacity:0.998" fill="#185693" d="M 646.5,828.5 C 649.5,828.5 652.5,828.5 655.5,828.5C 655.5,863.833 655.5,899.167 655.5,934.5C 652.5,934.5 649.5,934.5 646.5,934.5C 646.5,899.167 646.5,863.833 646.5,828.5 Z"/></g>
<g><path style="opacity:0.998" fill="#145e99" d="M 655.5,828.5 C 658.5,828.5 661.5,828.5 664.5,828.5C 664.5,863.833 664.5,899.167 664.5,934.5C 661.5,934.5 658.5,934.5 655.5,934.5C 655.5,899.167 655.5,863.833 655.5,828.5 Z"/></g>
<g><path style="opacity:0.998" fill="#12659f" d="M 664.5,828.5 C 667.167,828.5 669.833,828.5 672.5,828.5C 672.5,863.833 672.5,899.167 672.5,934.5C 669.833,934.5 667.167,934.5 664.5,934.5C 664.5,899.167 664.5,863.833 664.5,828.5 Z"/></g>
<g><path style="opacity:0.998" fill="#0f6ca5" d="M 672.5,828.5 C 675.167,828.5 677.833,828.5 680.5,828.5C 680.5,863.833 680.5,899.167 680.5,934.5C 677.833,934.5 675.167,934.5 672.5,934.5C 672.5,899.167 672.5,863.833 672.5,828.5 Z"/></g>
<g><path style="opacity:0.998" fill="#0b75ad" d="M 680.5,828.5 C 685.167,828.5 689.833,828.5 694.5,828.5C 694.5,863.833 694.5,899.167 694.5,934.5C 689.833,934.5 685.167,934.5 680.5,934.5C 680.5,899.167 680.5,863.833 680.5,828.5 Z"/></g>
<g><path style="opacity:0.998" fill="#0583b9" d="M 694.5,828.5 C 699.167,828.5 703.833,828.5 708.5,828.5C 708.5,863.833 708.5,899.167 708.5,934.5C 703.833,934.5 699.167,934.5 694.5,934.5C 694.5,899.167 694.5,863.833 694.5,828.5 Z"/></g>
<g><path style="opacity:0.916" fill="#018ec2" d="M 708.5,828.5 C 711.5,828.5 714.5,828.5 717.5,828.5C 717.5,863.833 717.5,899.167 717.5,934.5C 714.5,934.5 711.5,934.5 708.5,934.5C 708.5,899.167 708.5,863.833 708.5,828.5 Z"/></g>
<g><path style="opacity:0.97" fill="#fab80d" d="M 815.5,830.5 C 821.5,830.5 827.5,830.5 833.5,830.5C 833.5,898.167 833.5,965.833 833.5,1033.5C 820.601,1018.57 809.601,1002.24 800.5,984.5C 809.475,983.502 818.475,983.168 827.5,983.5C 827.5,946.5 827.5,909.5 827.5,872.5C 823.5,872.5 819.5,872.5 815.5,872.5C 815.5,858.5 815.5,844.5 815.5,830.5 Z"/></g>
<g><path style="opacity:0.993" fill="#fab30f" d="M 833.5,830.5 C 837.5,830.5 841.5,830.5 845.5,830.5C 845.5,902.833 845.5,975.167 845.5,1047.5C 841.029,1043.21 837.029,1038.55 833.5,1033.5C 833.5,965.833 833.5,898.167 833.5,830.5 Z"/></g>
<g><path style="opacity:0.995" fill="#f9b010" d="M 845.5,830.5 C 849.167,830.5 852.833,830.5 856.5,830.5C 856.5,906.5 856.5,982.5 856.5,1058.5C 852.5,1055.17 848.833,1051.5 845.5,1047.5C 845.5,975.167 845.5,902.833 845.5,830.5 Z"/></g>
<g><path style="opacity:1" fill="#c3d2e3" d="M 1028.5,831.5 C 1027.17,848.833 1027.17,866.167 1028.5,883.5C 1028.44,884.043 1028.11,884.376 1027.5,884.5C 1026.17,866.5 1026.17,848.5 1027.5,830.5C 1028.11,830.624 1028.44,830.957 1028.5,831.5 Z"/></g>
<g><path style="opacity:0.935" fill="#223a7c" d="M 1000.5,823.5 C 1000.5,846.167 1000.5,868.833 1000.5,891.5C 992.861,881.58 989.194,870.247 989.5,857.5C 988.873,844.641 992.539,833.308 1000.5,823.5 Z"/></g>
<g><path style="opacity:1" fill="#fcfdfe" d="M 1028.5,831.5 C 1030.5,832.5 1032.5,833.5 1034.5,834.5C 1038.66,837.414 1042.99,840.081 1047.5,842.5C 1053.16,846.665 1059.16,850.332 1065.5,853.5C 1067.12,854.779 1068.79,856.113 1070.5,857.5C 1068.58,858.612 1066.91,859.946 1065.5,861.5C 1061.16,863.332 1057.16,865.665 1053.5,868.5C 1045.46,873.514 1037.46,878.514 1029.5,883.5C 1029.17,883.5 1028.83,883.5 1028.5,883.5C 1027.17,866.167 1027.17,848.833 1028.5,831.5 Z"/></g>
<g><path style="opacity:0.995" fill="#f49837" d="M 1322.5,855.5 C 1322.44,887.542 1317.1,918.542 1306.5,948.5C 1272.44,1006.57 1238.78,1064.9 1205.5,1123.5C 1203.83,1123.5 1202.17,1123.5 1200.5,1123.5C 1200.17,1123.5 1199.83,1123.5 1199.5,1123.5C 1193.9,1113.97 1188.57,1104.3 1183.5,1094.5C 1230.09,1015 1276.42,935.331 1322.5,855.5 Z"/></g>
<g><path style="opacity:0.992" fill="#106da6" d="M 1065.5,861.5 C 1066.5,877.658 1066.83,893.991 1066.5,910.5C 1062.68,912.122 1058.68,913.122 1054.5,913.5C 1054.83,898.324 1054.5,883.324 1053.5,868.5C 1057.16,865.665 1061.16,863.332 1065.5,861.5 Z"/></g>
<g><path style="opacity:0.987" fill="#155f9b" d="M 1053.5,868.5 C 1054.5,883.324 1054.83,898.324 1054.5,913.5C 1046.48,914.855 1038.48,914.522 1030.5,912.5C 1030.83,902.652 1030.49,892.986 1029.5,883.5C 1037.46,878.514 1045.46,873.514 1053.5,868.5 Z"/></g>
<g><path style="opacity:0.981" fill="#f59e15" d="M 893.5,883.5 C 896.38,893.138 900.046,902.472 904.5,911.5C 908.965,922.592 914.631,933.092 921.5,943C 912.173,943.5 902.839,943.666 893.5,943.5C 893.5,923.5 893.5,903.5 893.5,883.5 Z"/></g>
<g><path style="opacity:0.99" fill="#f39219" d="M 951.5,975.5 C 951.5,1022.83 951.5,1070.17 951.5,1117.5C 944.532,1115.01 937.865,1112.01 931.5,1108.5C 931.5,1074.83 931.5,1041.17 931.5,1007.5C 933.167,1007.5 934.833,1007.5 936.5,1007.5C 936.167,992.485 936.501,977.485 937.5,962.5C 942.187,966.855 946.854,971.188 951.5,975.5 Z"/></g>
<g><path style="opacity:0.992" fill="#f28c1b" d="M 951.5,975.5 C 957.66,980.08 963.993,984.414 970.5,988.5C 970.5,1033.5 970.5,1078.5 970.5,1123.5C 964.167,1121.5 957.833,1119.5 951.5,1117.5C 951.5,1070.17 951.5,1022.83 951.5,975.5 Z"/></g>
<g><path style="opacity:0.992" fill="#f1861d" d="M 970.5,988.5 C 976.565,991.533 982.565,994.533 988.5,997.5C 988.5,1040.83 988.5,1084.17 988.5,1127.5C 982.427,1126.48 976.427,1125.15 970.5,1123.5C 970.5,1078.5 970.5,1033.5 970.5,988.5 Z"/></g>
<g><path style="opacity:0.993" fill="#f07f1f" d="M 988.5,997.5 C 995.699,1000.23 1003.03,1002.57 1010.5,1004.5C 1010.5,1046.83 1010.5,1089.17 1010.5,1131.5C 1003.02,1130.8 995.686,1129.47 988.5,1127.5C 988.5,1084.17 988.5,1040.83 988.5,997.5 Z"/></g>
<g><path style="opacity:0.993" fill="#ee7921" d="M 1010.5,1004.5 C 1016.74,1006.04 1023.07,1007.04 1029.5,1007.5C 1029.5,1049.5 1029.5,1091.5 1029.5,1133.5C 1023.14,1133.03 1016.8,1132.36 1010.5,1131.5C 1010.5,1089.17 1010.5,1046.83 1010.5,1004.5 Z"/></g>
<g><path style="opacity:0.985" fill="#f7a513" d="M 874.5,1007.5 C 880.833,1007.5 887.167,1007.5 893.5,1007.5C 893.5,1034.17 893.5,1060.83 893.5,1087.5C 886.91,1083.58 880.577,1079.25 874.5,1074.5C 874.5,1052.17 874.5,1029.83 874.5,1007.5 Z"/></g>
<g><path style="opacity:0.988" fill="#f69f15" d="M 893.5,1007.5 C 899.5,1007.5 905.5,1007.5 911.5,1007.5C 911.5,1037.83 911.5,1068.17 911.5,1098.5C 904.967,1095.62 898.967,1091.95 893.5,1087.5C 893.5,1060.83 893.5,1034.17 893.5,1007.5 Z"/></g>
<g><path style="opacity:0.988" fill="#f49917" d="M 911.5,1007.5 C 918.167,1007.5 924.833,1007.5 931.5,1007.5C 931.5,1041.17 931.5,1074.83 931.5,1108.5C 924.248,1106.21 917.581,1102.87 911.5,1098.5C 911.5,1068.17 911.5,1037.83 911.5,1007.5 Z"/></g>
<g><path style="opacity:0.995" fill="#ed7323" d="M 1029.5,1007.5 C 1035.77,1008.42 1042.11,1008.75 1048.5,1008.5C 1048.5,1050.17 1048.5,1091.83 1048.5,1133.5C 1042.17,1133.5 1035.83,1133.5 1029.5,1133.5C 1029.5,1091.5 1029.5,1049.5 1029.5,1007.5 Z"/></g>
<g><path style="opacity:0.994" fill="#ec6d25" d="M 1048.5,1008.5 C 1058.56,1008.42 1068.56,1009.09 1078.5,1010.5C 1078.5,1050.83 1078.5,1091.17 1078.5,1131.5C 1068.72,1133.16 1058.72,1133.83 1048.5,1133.5C 1048.5,1091.83 1048.5,1050.17 1048.5,1008.5 Z"/></g>
<g><path style="opacity:0.99" fill="#ec6825" d="M 1078.5,1010.5 C 1085.25,1011.85 1091.91,1013.52 1098.5,1015.5C 1098.5,1064.17 1098.5,1112.83 1098.5,1161.5C 1092.77,1152.39 1087.27,1143.06 1082,1133.5C 1081.18,1132.18 1080.02,1131.51 1078.5,1131.5C 1078.5,1091.17 1078.5,1050.83 1078.5,1010.5 Z"/></g>
<g><path style="opacity:0.99" fill="#ec6526" d="M 1098.5,1015.5 C 1105,1017.78 1111.33,1020.44 1117.5,1023.5C 1117.5,1080.5 1117.5,1137.5 1117.5,1194.5C 1110.78,1183.76 1104.44,1172.76 1098.5,1161.5C 1098.5,1112.83 1098.5,1064.17 1098.5,1015.5 Z"/></g>
<g><path style="opacity:0.993" fill="#eb6025" d="M 1117.5,1023.5 C 1130.81,1029.98 1142.48,1038.65 1152.5,1049.5C 1152.17,1101 1152.5,1152.34 1153.5,1203.5C 1148.65,1212.54 1143.32,1221.2 1137.5,1229.5C 1130.58,1218 1123.92,1206.34 1117.5,1194.5C 1117.5,1137.5 1117.5,1080.5 1117.5,1023.5 Z"/></g>
<g><path style="opacity:0.994" fill="#f59e39" d="M 1306.5,948.5 C 1297.22,976.237 1283.88,1001.74 1266.5,1025C 1272.38,1035.93 1278.38,1046.76 1284.5,1057.5C 1271.83,1079.5 1259.17,1101.5 1246.5,1123.5C 1232.83,1123.5 1219.17,1123.5 1205.5,1123.5C 1238.78,1064.9 1272.44,1006.57 1306.5,948.5 Z"/></g>
<g><path style="opacity:0.997" fill="#ea5a25" d="M 1152.5,1049.5 C 1156.17,1053.5 1159.83,1057.5 1163.5,1061.5C 1163.93,1062.71 1164.6,1063.71 1165.5,1064.5C 1167.47,1068.46 1169.81,1072.12 1172.5,1075.5C 1175.41,1082.33 1179.08,1088.67 1183.5,1094.5C 1188.57,1104.3 1193.9,1113.97 1199.5,1123.5C 1184.57,1150.42 1169.23,1177.09 1153.5,1203.5C 1152.5,1152.34 1152.17,1101 1152.5,1049.5 Z"/></g>
<g><path style="opacity:0.99" fill="#f7a63d" d="M 1284.5,1057.5 C 1297.56,1079.24 1310.22,1101.24 1322.5,1123.5C 1297.17,1123.5 1271.83,1123.5 1246.5,1123.5C 1259.17,1101.5 1271.83,1079.5 1284.5,1057.5 Z"/></g>
<g><path style="opacity:0.995" fill="#f8af00" d="M 1200.5,1123.5 C 1202.17,1123.5 1203.83,1123.5 1205.5,1123.5C 1219.17,1123.5 1232.83,1123.5 1246.5,1123.5C 1271.83,1123.5 1297.17,1123.5 1322.5,1123.5C 1320.59,1168.01 1318.26,1212.34 1315.5,1256.5C 1315.5,1255.17 1315.5,1253.83 1315.5,1252.5C 1302.18,1253.35 1288.84,1254.01 1275.5,1254.5C 1250.07,1211.07 1225.07,1167.41 1200.5,1123.5 Z"/></g>
<g><path style="opacity:0.994" fill="#ce7e00" d="M 1199.5,1123.5 C 1199.83,1123.5 1200.17,1123.5 1200.5,1123.5C 1225.07,1167.41 1250.07,1211.07 1275.5,1254.5C 1268.32,1266.22 1260.65,1277.55 1252.5,1288.5C 1213.69,1269.6 1175.36,1249.93 1137.5,1229.5C 1143.32,1221.2 1148.65,1212.54 1153.5,1203.5C 1169.23,1177.09 1184.57,1150.42 1199.5,1123.5 Z"/></g>
<g><path style="opacity:1" fill="#5a5655" d="M 1315.5,1256.5 C 1315,1276.51 1314.17,1296.51 1313,1316.5C 1312.75,1317.62 1312.25,1318.62 1311.5,1319.5C 1291.61,1309.39 1271.95,1299.06 1252.5,1288.5C 1260.65,1277.55 1268.32,1266.22 1275.5,1254.5C 1288.84,1254.01 1302.18,1253.35 1315.5,1252.5C 1315.5,1253.83 1315.5,1255.17 1315.5,1256.5 Z"/></g>
<g><path style="opacity:0.99" fill="#12649f" d="M 892.5,1433.5 C 895.57,1433.37 898.57,1433.7 901.5,1434.5C 901.5,1457.83 901.5,1481.17 901.5,1504.5C 898.5,1504.5 895.5,1504.5 892.5,1504.5C 892.5,1480.83 892.5,1457.17 892.5,1433.5 Z"/></g>
<g><path style="opacity:0.98" fill="#175895" d="M 892.5,1433.5 C 892.5,1457.17 892.5,1480.83 892.5,1504.5C 889.941,1504.8 887.607,1504.47 885.5,1503.5C 885.5,1480.5 885.5,1457.5 885.5,1434.5C 887.903,1434.55 890.236,1434.22 892.5,1433.5 Z"/></g>
<g><path style="opacity:0.982" fill="#1a4f8d" d="M 885.5,1434.5 C 885.5,1457.5 885.5,1480.5 885.5,1503.5C 882.458,1503.27 879.792,1502.27 877.5,1500.5C 877.5,1479.83 877.5,1459.17 877.5,1438.5C 879.853,1436.66 882.52,1435.32 885.5,1434.5 Z"/></g>
<g><path style="opacity:0.985" fill="#0d71a9" d="M 901.5,1434.5 C 904.785,1434.93 907.785,1435.93 910.5,1437.5C 910.5,1458.83 910.5,1480.17 910.5,1501.5C 907.673,1502.96 904.673,1503.96 901.5,1504.5C 901.5,1481.17 901.5,1457.83 901.5,1434.5 Z"/></g>
<g><path style="opacity:0.981" fill="#087db4" d="M 910.5,1437.5 C 914.025,1438.76 917.025,1440.76 919.5,1443.5C 919.5,1460.5 919.5,1477.5 919.5,1494.5C 917.082,1497.55 914.082,1499.88 910.5,1501.5C 910.5,1480.17 910.5,1458.83 910.5,1437.5 Z"/></g>
<g><path style="opacity:0.998" fill="#23397a" d="M 183.5,1442.5 C 183.5,1559.83 183.5,1677.17 183.5,1794.5C 179.833,1794.5 176.167,1794.5 172.5,1794.5C 172.5,1677.17 172.5,1559.83 172.5,1442.5C 176.167,1442.5 179.833,1442.5 183.5,1442.5 Z"/></g>
<g><path style="opacity:0.998" fill="#223c7d" d="M 183.5,1442.5 C 186.833,1442.5 190.167,1442.5 193.5,1442.5C 193.5,1559.83 193.5,1677.17 193.5,1794.5C 190.167,1794.5 186.833,1794.5 183.5,1794.5C 183.5,1677.17 183.5,1559.83 183.5,1442.5 Z"/></g>
<g><path style="opacity:0.998" fill="#204181" d="M 193.5,1442.5 C 198.833,1442.5 204.167,1442.5 209.5,1442.5C 209.5,1559.83 209.5,1677.17 209.5,1794.5C 204.167,1794.5 198.833,1794.5 193.5,1794.5C 193.5,1677.17 193.5,1559.83 193.5,1442.5 Z"/></g>
<g><path style="opacity:0.998" fill="#1d4786" d="M 209.5,1442.5 C 214.167,1442.5 218.833,1442.5 223.5,1442.5C 223.5,1559.83 223.5,1677.17 223.5,1794.5C 218.833,1794.5 214.167,1794.5 209.5,1794.5C 209.5,1677.17 209.5,1559.83 209.5,1442.5 Z"/></g>
<g><path style="opacity:0.941" fill="#1b4c8b" d="M 223.5,1442.5 C 224.5,1442.5 225.5,1442.5 226.5,1442.5C 226.5,1541.83 226.5,1641.17 226.5,1740.5C 231.167,1740.5 235.833,1740.5 240.5,1740.5C 240.5,1758.5 240.5,1776.5 240.5,1794.5C 234.833,1794.5 229.167,1794.5 223.5,1794.5C 223.5,1677.17 223.5,1559.83 223.5,1442.5 Z"/></g>
<g><path style="opacity:0.998" fill="#223b7d" d="M 758.5,1442.5 C 758.5,1559.83 758.5,1677.17 758.5,1794.5C 756.5,1794.5 754.5,1794.5 752.5,1794.5C 752.5,1677.17 752.5,1559.83 752.5,1442.5C 754.5,1442.5 756.5,1442.5 758.5,1442.5 Z"/></g>
<g><path style="opacity:0.998" fill="#204182" d="M 758.5,1442.5 C 759.833,1442.5 761.167,1442.5 762.5,1442.5C 762.5,1559.83 762.5,1677.17 762.5,1794.5C 761.167,1794.5 759.833,1794.5 758.5,1794.5C 758.5,1677.17 758.5,1559.83 758.5,1442.5 Z"/></g>
<g><path style="opacity:0.998" fill="#1d4786" d="M 762.5,1442.5 C 763.5,1442.5 764.5,1442.5 765.5,1442.5C 765.5,1559.83 765.5,1677.17 765.5,1794.5C 764.5,1794.5 763.5,1794.5 762.5,1794.5C 762.5,1677.17 762.5,1559.83 762.5,1442.5 Z"/></g>
<g><path style="opacity:0.998" fill="#1b4d8c" d="M 765.5,1442.5 C 767.167,1442.5 768.833,1442.5 770.5,1442.5C 770.5,1559.83 770.5,1677.17 770.5,1794.5C 768.833,1794.5 767.167,1794.5 765.5,1794.5C 765.5,1677.17 765.5,1559.83 765.5,1442.5 Z"/></g>
<g><path style="opacity:0.998" fill="#185592" d="M 770.5,1442.5 C 771.833,1442.5 773.167,1442.5 774.5,1442.5C 774.5,1559.83 774.5,1677.17 774.5,1794.5C 773.167,1794.5 771.833,1794.5 770.5,1794.5C 770.5,1677.17 770.5,1559.83 770.5,1442.5 Z"/></g>
<g><path style="opacity:0.998" fill="#145e99" d="M 774.5,1442.5 C 776.167,1442.5 777.833,1442.5 779.5,1442.5C 779.5,1559.83 779.5,1677.17 779.5,1794.5C 777.833,1794.5 776.167,1794.5 774.5,1794.5C 774.5,1677.17 774.5,1559.83 774.5,1442.5 Z"/></g>
<g><path style="opacity:0.998" fill="#1165a0" d="M 779.5,1442.5 C 780.833,1442.5 782.167,1442.5 783.5,1442.5C 783.5,1559.83 783.5,1677.17 783.5,1794.5C 782.167,1794.5 780.833,1794.5 779.5,1794.5C 779.5,1677.17 779.5,1559.83 779.5,1442.5 Z"/></g>
<g><path style="opacity:0.998" fill="#0e6ca6" d="M 783.5,1442.5 C 784.833,1442.5 786.167,1442.5 787.5,1442.5C 787.5,1559.83 787.5,1677.17 787.5,1794.5C 786.167,1794.5 784.833,1794.5 783.5,1794.5C 783.5,1677.17 783.5,1559.83 783.5,1442.5 Z"/></g>
<g><path style="opacity:0.998" fill="#0c73ab" d="M 787.5,1442.5 C 788.5,1442.5 789.5,1442.5 790.5,1442.5C 790.5,1559.83 790.5,1677.17 790.5,1794.5C 789.5,1794.5 788.5,1794.5 787.5,1794.5C 787.5,1677.17 787.5,1559.83 787.5,1442.5 Z"/></g>
<g><path style="opacity:0.998" fill="#0979b0" d="M 790.5,1442.5 C 791.833,1442.5 793.167,1442.5 794.5,1442.5C 794.5,1559.83 794.5,1677.17 794.5,1794.5C 793.167,1794.5 791.833,1794.5 790.5,1794.5C 790.5,1677.17 790.5,1559.83 790.5,1442.5 Z"/></g>
<g><path style="opacity:0.998" fill="#077fb6" d="M 794.5,1442.5 C 795.5,1442.5 796.5,1442.5 797.5,1442.5C 797.5,1559.83 797.5,1677.17 797.5,1794.5C 796.5,1794.5 795.5,1794.5 794.5,1794.5C 794.5,1677.17 794.5,1559.83 794.5,1442.5 Z"/></g>
<g><path style="opacity:0.998" fill="#0585ba" d="M 797.5,1442.5 C 798.5,1442.5 799.5,1442.5 800.5,1442.5C 800.5,1559.83 800.5,1677.17 800.5,1794.5C 799.5,1794.5 798.5,1794.5 797.5,1794.5C 797.5,1677.17 797.5,1559.83 797.5,1442.5 Z"/></g>
<g><path style="opacity:0.998" fill="#028cc0" d="M 800.5,1442.5 C 802.167,1442.5 803.833,1442.5 805.5,1442.5C 805.5,1559.83 805.5,1677.17 805.5,1794.5C 803.833,1794.5 802.167,1794.5 800.5,1794.5C 800.5,1677.17 800.5,1559.83 800.5,1442.5 Z"/></g>
<g><path style="opacity:0.964" fill="#204181" d="M 877.5,1438.5 C 877.5,1459.17 877.5,1479.83 877.5,1500.5C 862.316,1491.5 856.483,1478.17 860,1460.5C 862.366,1450.31 868.2,1442.98 877.5,1438.5 Z"/></g>
<g><path style="opacity:0.998" fill="#233a7b" d="M 989.5,1442.5 C 989.5,1559.83 989.5,1677.17 989.5,1794.5C 987.5,1794.5 985.5,1794.5 983.5,1794.5C 983.5,1677.17 983.5,1559.83 983.5,1442.5C 985.5,1442.5 987.5,1442.5 989.5,1442.5 Z"/></g>
<g><path style="opacity:0.998" fill="#204181" d="M 989.5,1442.5 C 990.833,1442.5 992.167,1442.5 993.5,1442.5C 993.5,1559.83 993.5,1677.17 993.5,1794.5C 992.167,1794.5 990.833,1794.5 989.5,1794.5C 989.5,1677.17 989.5,1559.83 989.5,1442.5 Z"/></g>
<g><path style="opacity:0.998" fill="#1e4786" d="M 993.5,1442.5 C 994.833,1442.5 996.167,1442.5 997.5,1442.5C 997.5,1559.83 997.5,1677.17 997.5,1794.5C 996.167,1794.5 994.833,1794.5 993.5,1794.5C 993.5,1677.17 993.5,1559.83 993.5,1442.5 Z"/></g>
<g><path style="opacity:0.998" fill="#1b4d8b" d="M 997.5,1442.5 C 998.833,1442.5 1000.17,1442.5 1001.5,1442.5C 1001.5,1559.83 1001.5,1677.17 1001.5,1794.5C 1000.17,1794.5 998.833,1794.5 997.5,1794.5C 997.5,1677.17 997.5,1559.83 997.5,1442.5 Z"/></g>
<g><path style="opacity:0.998" fill="#185492" d="M 1001.5,1442.5 C 1002.83,1442.5 1004.17,1442.5 1005.5,1442.5C 1005.5,1559.83 1005.5,1677.17 1005.5,1794.5C 1004.17,1794.5 1002.83,1794.5 1001.5,1794.5C 1001.5,1677.17 1001.5,1559.83 1001.5,1442.5 Z"/></g>
<g><path style="opacity:0.998" fill="#165a96" d="M 1005.5,1442.5 C 1006.5,1442.5 1007.5,1442.5 1008.5,1442.5C 1008.5,1559.83 1008.5,1677.17 1008.5,1794.5C 1007.5,1794.5 1006.5,1794.5 1005.5,1794.5C 1005.5,1677.17 1005.5,1559.83 1005.5,1442.5 Z"/></g>
<g><path style="opacity:0.998" fill="#13609b" d="M 1008.5,1442.5 C 1009.83,1442.5 1011.17,1442.5 1012.5,1442.5C 1012.5,1559.83 1012.5,1677.17 1012.5,1794.5C 1011.17,1794.5 1009.83,1794.5 1008.5,1794.5C 1008.5,1677.17 1008.5,1559.83 1008.5,1442.5 Z"/></g>
<g><path style="opacity:0.998" fill="#1167a1" d="M 1012.5,1442.5 C 1013.83,1442.5 1015.17,1442.5 1016.5,1442.5C 1016.5,1559.83 1016.5,1677.17 1016.5,1794.5C 1015.17,1794.5 1013.83,1794.5 1012.5,1794.5C 1012.5,1677.17 1012.5,1559.83 1012.5,1442.5 Z"/></g>
<g><path style="opacity:0.998" fill="#0c71aa" d="M 1016.5,1442.5 C 1018.5,1442.5 1020.5,1442.5 1022.5,1442.5C 1022.5,1559.83 1022.5,1677.17 1022.5,1794.5C 1020.5,1794.5 1018.5,1794.5 1016.5,1794.5C 1016.5,1677.17 1016.5,1559.83 1016.5,1442.5 Z"/></g>
<g><path style="opacity:0.998" fill="#0a78b0" d="M 1022.5,1442.5 C 1023.5,1442.5 1024.5,1442.5 1025.5,1442.5C 1025.5,1559.83 1025.5,1677.17 1025.5,1794.5C 1024.5,1794.5 1023.5,1794.5 1022.5,1794.5C 1022.5,1677.17 1022.5,1559.83 1022.5,1442.5 Z"/></g>
<g><path style="opacity:0.998" fill="#0583b9" d="M 1025.5,1442.5 C 1027.83,1442.5 1030.17,1442.5 1032.5,1442.5C 1032.5,1559.83 1032.5,1677.17 1032.5,1794.5C 1030.17,1794.5 1027.83,1794.5 1025.5,1794.5C 1025.5,1677.17 1025.5,1559.83 1025.5,1442.5 Z"/></g>
<g><path style="opacity:0.998" fill="#018dc0" d="M 1032.5,1442.5 C 1034.17,1442.5 1035.83,1442.5 1037.5,1442.5C 1037.5,1559.83 1037.5,1677.17 1037.5,1794.5C 1035.83,1794.5 1034.17,1794.5 1032.5,1794.5C 1032.5,1677.17 1032.5,1559.83 1032.5,1442.5 Z"/></g>
<g><path style="opacity:0.969" fill="#0488bc" d="M 919.5,1443.5 C 930.909,1455.73 933.409,1469.73 927,1485.5C 925.389,1489.27 922.889,1492.27 919.5,1494.5C 919.5,1477.5 919.5,1460.5 919.5,1443.5 Z"/></g>
<g><path style="opacity:0.989" fill="#145e9a" d="M 564.5,1519.5 C 564.5,1537.5 564.5,1555.5 564.5,1573.5C 553.667,1572.96 543.001,1573.96 532.5,1576.5C 532.5,1558.17 532.5,1539.83 532.5,1521.5C 543.038,1519.73 553.705,1519.06 564.5,1519.5 Z"/></g>
<g><path style="opacity:0.985" fill="#1166a0" d="M 564.5,1519.5 C 571.599,1519.34 578.599,1520.01 585.5,1521.5C 585.5,1540.17 585.5,1558.83 585.5,1577.5C 578.727,1575.15 571.727,1573.81 564.5,1573.5C 564.5,1555.5 564.5,1537.5 564.5,1519.5 Z"/></g>
<g><path style="opacity:0.989" fill="#14609b" d="M 1218.5,1519.5 C 1224.83,1519.5 1231.17,1519.5 1237.5,1519.5C 1237.5,1537.5 1237.5,1555.5 1237.5,1573.5C 1231.17,1573.5 1224.83,1573.5 1218.5,1573.5C 1218.5,1555.5 1218.5,1537.5 1218.5,1519.5 Z"/></g>
<g><path style="opacity:0.986" fill="#1166a1" d="M 1237.5,1519.5 C 1244.58,1519.45 1251.58,1520.11 1258.5,1521.5C 1258.5,1540.17 1258.5,1558.83 1258.5,1577.5C 1251.71,1575.2 1244.71,1573.87 1237.5,1573.5C 1237.5,1555.5 1237.5,1537.5 1237.5,1519.5 Z"/></g>
<g><path style="opacity:0.99" fill="#145e9a" d="M 1562.5,1519.5 C 1562.5,1537.5 1562.5,1555.5 1562.5,1573.5C 1551.33,1572.94 1540.33,1573.94 1529.5,1576.5C 1529.5,1557.83 1529.5,1539.17 1529.5,1520.5C 1540.32,1519.51 1551.32,1519.17 1562.5,1519.5 Z"/></g>
<g><path style="opacity:0.984" fill="#1166a1" d="M 1562.5,1519.5 C 1569.54,1520.58 1576.54,1521.91 1583.5,1523.5C 1583.5,1541.5 1583.5,1559.5 1583.5,1577.5C 1576.71,1575.2 1569.71,1573.87 1562.5,1573.5C 1562.5,1555.5 1562.5,1537.5 1562.5,1519.5 Z"/></g>
<g><path style="opacity:0.987" fill="#0584b9" d="M 1874.5,1519.5 C 1880.83,1519.5 1887.17,1519.5 1893.5,1519.5C 1893.5,1538.17 1893.5,1556.83 1893.5,1575.5C 1887.29,1573.9 1880.95,1573.23 1874.5,1573.5C 1874.5,1555.5 1874.5,1537.5 1874.5,1519.5 Z"/></g>
<g><path style="opacity:0.982" fill="#018dc1" d="M 1893.5,1519.5 C 1897.82,1519.93 1902.16,1520.26 1906.5,1520.5C 1906.83,1538.18 1906.5,1555.85 1905.5,1573.5C 1901.9,1576.54 1897.9,1577.21 1893.5,1575.5C 1893.5,1556.83 1893.5,1538.17 1893.5,1519.5 Z"/></g>
<g><path style="opacity:0.983" fill="#13609b" d="M 2075.5,1519.5 C 2075.5,1537.5 2075.5,1555.5 2075.5,1573.5C 2070.5,1573.5 2065.5,1573.5 2060.5,1573.5C 2060.5,1555.83 2060.5,1538.17 2060.5,1520.5C 2065.45,1519.67 2070.45,1519.34 2075.5,1519.5 Z"/></g>
<g><path style="opacity:0.992" fill="#1166a0" d="M 2075.5,1519.5 C 2081.17,1519.5 2086.83,1519.5 2092.5,1519.5C 2092.5,1538.5 2092.5,1557.5 2092.5,1576.5C 2086.92,1575.02 2081.25,1574.02 2075.5,1573.5C 2075.5,1555.5 2075.5,1537.5 2075.5,1519.5 Z"/></g>
<g><path style="opacity:0.983" fill="#0e6da6" d="M 2092.5,1519.5 C 2096.93,1520.18 2101.26,1521.18 2105.5,1522.5C 2105.5,1542.83 2105.5,1563.17 2105.5,1583.5C 2101.26,1580.88 2096.93,1578.55 2092.5,1576.5C 2092.5,1557.5 2092.5,1538.5 2092.5,1519.5 Z"/></g>
<g><path style="opacity:0.984" fill="#185592" d="M 1529.5,1520.5 C 1529.5,1539.17 1529.5,1557.83 1529.5,1576.5C 1521.51,1579.33 1513.85,1582.99 1506.5,1587.5C 1506.5,1566.83 1506.5,1546.17 1506.5,1525.5C 1513.75,1522.45 1521.42,1520.79 1529.5,1520.5 Z"/></g>
<g><path style="opacity:0.983" fill="#165a96" d="M 2060.5,1520.5 C 2060.5,1538.17 2060.5,1555.83 2060.5,1573.5C 2055.48,1574.67 2050.48,1576.01 2045.5,1577.5C 2045.5,1559.83 2045.5,1542.17 2045.5,1524.5C 2050.19,1522.42 2055.19,1521.09 2060.5,1520.5 Z"/></g>
<g><path style="opacity:0.983" fill="#0e6da6" d="M 585.5,1521.5 C 590.933,1522.52 596.267,1523.86 601.5,1525.5C 601.5,1544.83 601.5,1564.17 601.5,1583.5C 596.244,1581.3 590.911,1579.3 585.5,1577.5C 585.5,1558.83 585.5,1540.17 585.5,1521.5 Z"/></g>
<g><path style="opacity:0.981" fill="#0e6da6" d="M 1258.5,1521.5 C 1263.65,1522.37 1268.65,1523.7 1273.5,1525.5C 1273.5,1544.83 1273.5,1564.17 1273.5,1583.5C 1268.61,1581.22 1263.61,1579.22 1258.5,1577.5C 1258.5,1558.83 1258.5,1540.17 1258.5,1521.5 Z"/></g>
<g><path style="opacity:0.982" fill="#0b74ac" d="M 1874.5,1519.5 C 1874.5,1537.5 1874.5,1555.5 1874.5,1573.5C 1867.95,1573.34 1861.62,1574.34 1855.5,1576.5C 1855.5,1558.83 1855.5,1541.17 1855.5,1523.5C 1861.51,1521.22 1867.84,1519.88 1874.5,1519.5 Z"/></g>
<g><path style="opacity:0.985" fill="#175793" d="M 1218.5,1519.5 C 1218.5,1537.5 1218.5,1555.5 1218.5,1573.5C 1205.49,1576.16 1193.16,1580.83 1181.5,1587.5C 1181.5,1567.5 1181.5,1547.5 1181.5,1527.5C 1193.43,1523.1 1205.77,1520.43 1218.5,1519.5 Z"/></g>
<g><path style="opacity:0.981" fill="#0e6da6" d="M 1583.5,1523.5 C 1588.73,1525.13 1593.73,1527.13 1598.5,1529.5C 1598.5,1547.5 1598.5,1565.5 1598.5,1583.5C 1593.61,1581.22 1588.61,1579.22 1583.5,1577.5C 1583.5,1559.5 1583.5,1541.5 1583.5,1523.5 Z"/></g>
<g><path style="opacity:0.983" fill="#185491" d="M 532.5,1521.5 C 532.5,1539.83 532.5,1558.17 532.5,1576.5C 524.235,1579.63 516.235,1583.3 508.5,1587.5C 508.5,1567.5 508.5,1547.5 508.5,1527.5C 516.262,1524.56 524.262,1522.56 532.5,1521.5 Z"/></g>
<g><path style="opacity:0.981" fill="#0c73ab" d="M 2105.5,1522.5 C 2111.46,1523.71 2117.13,1525.71 2122.5,1528.5C 2122.5,1552.5 2122.5,1576.5 2122.5,1600.5C 2117.83,1593.83 2112.17,1588.17 2105.5,1583.5C 2105.5,1563.17 2105.5,1542.83 2105.5,1522.5 Z"/></g>
<g><path style="opacity:0.982" fill="#1b4d8c" d="M 1506.5,1525.5 C 1506.5,1546.17 1506.5,1566.83 1506.5,1587.5C 1498.2,1594.13 1490.53,1601.47 1483.5,1609.5C 1483.5,1584.83 1483.5,1560.17 1483.5,1535.5C 1490.52,1530.82 1498.19,1527.49 1506.5,1525.5 Z"/></g>
<g><path style="opacity:0.975" fill="#1068a2" d="M 1855.5,1523.5 C 1855.5,1541.17 1855.5,1558.83 1855.5,1576.5C 1848.7,1579.07 1842.36,1582.4 1836.5,1586.5C 1836.5,1567.83 1836.5,1549.17 1836.5,1530.5C 1842.47,1527.18 1848.81,1524.84 1855.5,1523.5 Z"/></g>
<g><path style="opacity:0.98" fill="#185491" d="M 2045.5,1524.5 C 2045.5,1542.17 2045.5,1559.83 2045.5,1577.5C 2039.87,1580.32 2034.53,1583.65 2029.5,1587.5C 2029.5,1568.83 2029.5,1550.17 2029.5,1531.5C 2034.31,1528.1 2039.64,1525.77 2045.5,1524.5 Z"/></g>
<g><path style="opacity:0.981" fill="#1b4d8c" d="M 508.5,1527.5 C 508.5,1547.5 508.5,1567.5 508.5,1587.5C 500.167,1593.83 492.833,1601.17 486.5,1609.5C 486.5,1585.83 486.5,1562.17 486.5,1538.5C 493.554,1534.31 500.888,1530.64 508.5,1527.5 Z"/></g>
<g><path style="opacity:0.81" fill="#204181" d="M 872.5,1527.5 C 872.5,1616.5 872.5,1705.5 872.5,1794.5C 870.833,1794.5 869.167,1794.5 867.5,1794.5C 867.5,1705.5 867.5,1616.5 867.5,1527.5C 869.167,1527.5 870.833,1527.5 872.5,1527.5 Z"/></g>
<g><path style="opacity:0.996" fill="#1d4786" d="M 872.5,1527.5 C 874.167,1527.5 875.833,1527.5 877.5,1527.5C 877.5,1616.5 877.5,1705.5 877.5,1794.5C 875.833,1794.5 874.167,1794.5 872.5,1794.5C 872.5,1705.5 872.5,1616.5 872.5,1527.5 Z"/></g>
<g><path style="opacity:0.996" fill="#1a518e" d="M 877.5,1527.5 C 880.167,1527.5 882.833,1527.5 885.5,1527.5C 885.5,1616.5 885.5,1705.5 885.5,1794.5C 882.833,1794.5 880.167,1794.5 877.5,1794.5C 877.5,1705.5 877.5,1616.5 877.5,1527.5 Z"/></g>
<g><path style="opacity:0.996" fill="#165996" d="M 885.5,1527.5 C 887.833,1527.5 890.167,1527.5 892.5,1527.5C 892.5,1616.5 892.5,1705.5 892.5,1794.5C 890.167,1794.5 887.833,1794.5 885.5,1794.5C 885.5,1705.5 885.5,1616.5 885.5,1527.5 Z"/></g>
<g><path style="opacity:0.996" fill="#13609b" d="M 892.5,1527.5 C 893.833,1527.5 895.167,1527.5 896.5,1527.5C 896.5,1616.5 896.5,1705.5 896.5,1794.5C 895.167,1794.5 893.833,1794.5 892.5,1794.5C 892.5,1705.5 892.5,1616.5 892.5,1527.5 Z"/></g>
<g><path style="opacity:0.996" fill="#1166a0" d="M 896.5,1527.5 C 898.167,1527.5 899.833,1527.5 901.5,1527.5C 901.5,1616.5 901.5,1705.5 901.5,1794.5C 899.833,1794.5 898.167,1794.5 896.5,1794.5C 896.5,1705.5 896.5,1616.5 896.5,1527.5 Z"/></g>
<g><path style="opacity:0.996" fill="#0f6ca5" d="M 901.5,1527.5 C 902.833,1527.5 904.167,1527.5 905.5,1527.5C 905.5,1616.5 905.5,1705.5 905.5,1794.5C 904.167,1794.5 902.833,1794.5 901.5,1794.5C 901.5,1705.5 901.5,1616.5 901.5,1527.5 Z"/></g>
<g><path style="opacity:0.996" fill="#0a77ae" d="M 905.5,1527.5 C 908.5,1527.5 911.5,1527.5 914.5,1527.5C 914.5,1616.5 914.5,1705.5 914.5,1794.5C 911.5,1794.5 908.5,1794.5 905.5,1794.5C 905.5,1705.5 905.5,1616.5 905.5,1527.5 Z"/></g>
<g><path style="opacity:0.996" fill="#0680b6" d="M 914.5,1527.5 C 916.833,1527.5 919.167,1527.5 921.5,1527.5C 921.5,1616.5 921.5,1705.5 921.5,1794.5C 919.167,1794.5 916.833,1794.5 914.5,1794.5C 914.5,1705.5 914.5,1616.5 914.5,1527.5 Z"/></g>
<g><path style="opacity:0.98" fill="#1b4d8c" d="M 1181.5,1527.5 C 1181.5,1547.5 1181.5,1567.5 1181.5,1587.5C 1172.83,1594.17 1165.17,1601.83 1158.5,1610.5C 1158.5,1586.83 1158.5,1563.17 1158.5,1539.5C 1165.41,1534.21 1173.07,1530.21 1181.5,1527.5 Z"/></g>
<g><path style="opacity:0.963" fill="#077fb5" d="M 1650.5,1527.5 C 1650.5,1616.5 1650.5,1705.5 1650.5,1794.5C 1648.17,1794.5 1645.83,1794.5 1643.5,1794.5C 1643.67,1783.16 1643.5,1771.83 1643,1760.5C 1640.63,1763.04 1638.13,1765.37 1635.5,1767.5C 1635.5,1745.17 1635.5,1722.83 1635.5,1700.5C 1646.17,1674.51 1646.17,1648.51 1635.5,1622.5C 1635.5,1599.83 1635.5,1577.17 1635.5,1554.5C 1638.13,1556.63 1640.63,1558.96 1643,1561.5C 1643.5,1550.17 1643.67,1538.84 1643.5,1527.5C 1645.83,1527.5 1648.17,1527.5 1650.5,1527.5 Z"/></g>
<g><path style="opacity:0.996" fill="#0584b9" d="M 1650.5,1527.5 C 1655.17,1527.5 1659.83,1527.5 1664.5,1527.5C 1664.5,1616.5 1664.5,1705.5 1664.5,1794.5C 1659.83,1794.5 1655.17,1794.5 1650.5,1794.5C 1650.5,1705.5 1650.5,1616.5 1650.5,1527.5 Z"/></g>
<g><path style="opacity:0.996" fill="#028abe" d="M 1664.5,1527.5 C 1671.17,1527.5 1677.83,1527.5 1684.5,1527.5C 1684.5,1616.5 1684.5,1705.5 1684.5,1794.5C 1677.83,1794.5 1671.17,1794.5 1664.5,1794.5C 1664.5,1705.5 1664.5,1616.5 1664.5,1527.5 Z"/></g>
<g><path style="opacity:0.996" fill="#0090c3" d="M 1684.5,1527.5 C 1688.83,1527.5 1693.17,1527.5 1697.5,1527.5C 1697.5,1616.5 1697.5,1705.5 1697.5,1794.5C 1693.17,1794.5 1688.83,1794.5 1684.5,1794.5C 1684.5,1705.5 1684.5,1616.5 1684.5,1527.5 Z"/></g>
<g><path style="opacity:0.996" fill="#223b7d" d="M 1775.5,1527.5 C 1775.5,1616.5 1775.5,1705.5 1775.5,1794.5C 1770.5,1794.5 1765.5,1794.5 1760.5,1794.5C 1760.5,1705.5 1760.5,1616.5 1760.5,1527.5C 1765.5,1527.5 1770.5,1527.5 1775.5,1527.5 Z"/></g>
<g><path style="opacity:0.996" fill="#204181" d="M 1775.5,1527.5 C 1779.17,1527.5 1782.83,1527.5 1786.5,1527.5C 1786.5,1616.5 1786.5,1705.5 1786.5,1794.5C 1782.83,1794.5 1779.17,1794.5 1775.5,1794.5C 1775.5,1705.5 1775.5,1616.5 1775.5,1527.5 Z"/></g>
<g><path style="opacity:0.996" fill="#1d4786" d="M 1786.5,1527.5 C 1789.83,1527.5 1793.17,1527.5 1796.5,1527.5C 1796.5,1616.5 1796.5,1705.5 1796.5,1794.5C 1793.17,1794.5 1789.83,1794.5 1786.5,1794.5C 1786.5,1705.5 1786.5,1616.5 1786.5,1527.5 Z"/></g>
<g><path style="opacity:0.996" fill="#1b4e8c" d="M 1796.5,1527.5 C 1800.5,1527.5 1804.5,1527.5 1808.5,1527.5C 1808.5,1616.5 1808.5,1705.5 1808.5,1794.5C 1804.5,1794.5 1800.5,1794.5 1796.5,1794.5C 1796.5,1705.5 1796.5,1616.5 1796.5,1527.5 Z"/></g>
<g><path style="opacity:0.963" fill="#185391" d="M 1808.5,1527.5 C 1810.17,1527.5 1811.83,1527.5 1813.5,1527.5C 1813.33,1534.17 1813.5,1540.84 1814,1547.5C 1816.04,1545.29 1818.2,1543.29 1820.5,1541.5C 1820.5,1563.17 1820.5,1584.83 1820.5,1606.5C 1817.02,1613.76 1814.86,1621.43 1814,1629.5C 1813.5,1684.5 1813.33,1739.5 1813.5,1794.5C 1811.83,1794.5 1810.17,1794.5 1808.5,1794.5C 1808.5,1705.5 1808.5,1616.5 1808.5,1527.5 Z"/></g>
<g><path style="opacity:0.996" fill="#23397b" d="M 1966.5,1527.5 C 1966.5,1616.5 1966.5,1705.5 1966.5,1794.5C 1962.17,1794.5 1957.83,1794.5 1953.5,1794.5C 1953.5,1705.5 1953.5,1616.5 1953.5,1527.5C 1957.83,1527.5 1962.17,1527.5 1966.5,1527.5 Z"/></g>
<g><path style="opacity:0.996" fill="#223c7e" d="M 1966.5,1527.5 C 1970.17,1527.5 1973.83,1527.5 1977.5,1527.5C 1977.5,1616.5 1977.5,1705.5 1977.5,1794.5C 1973.83,1794.5 1970.17,1794.5 1966.5,1794.5C 1966.5,1705.5 1966.5,1616.5 1966.5,1527.5 Z"/></g>
<g><path style="opacity:0.996" fill="#204181" d="M 1977.5,1527.5 C 1982.17,1527.5 1986.83,1527.5 1991.5,1527.5C 1991.5,1616.5 1991.5,1705.5 1991.5,1794.5C 1986.83,1794.5 1982.17,1794.5 1977.5,1794.5C 1977.5,1705.5 1977.5,1616.5 1977.5,1527.5 Z"/></g>
<g><path style="opacity:0.982" fill="#1e4686" d="M 1991.5,1527.5 C 1996.83,1527.5 2002.17,1527.5 2007.5,1527.5C 2007.33,1534.17 2007.5,1540.84 2008,1547.5C 2009.04,1546.29 2010.21,1545.29 2011.5,1544.5C 2011.5,1567.17 2011.5,1589.83 2011.5,1612.5C 2009.71,1617.68 2008.54,1623.01 2008,1628.5C 2007.5,1683.83 2007.33,1739.17 2007.5,1794.5C 2002.17,1794.5 1996.83,1794.5 1991.5,1794.5C 1991.5,1705.5 1991.5,1616.5 1991.5,1527.5 Z"/></g>
<g><path style="opacity:0.98" fill="#0c73ab" d="M 601.5,1525.5 C 608.236,1527.41 614.569,1530.07 620.5,1533.5C 620.5,1555.17 620.5,1576.83 620.5,1598.5C 614.43,1593.09 608.096,1588.09 601.5,1583.5C 601.5,1564.17 601.5,1544.83 601.5,1525.5 Z"/></g>
<g><path style="opacity:0.982" fill="#0c73ab" d="M 1273.5,1525.5 C 1280.57,1527.19 1287.24,1529.86 1293.5,1533.5C 1293.5,1555.17 1293.5,1576.83 1293.5,1598.5C 1286.81,1593.47 1280.14,1588.47 1273.5,1583.5C 1273.5,1564.17 1273.5,1544.83 1273.5,1525.5 Z"/></g>
<g><path style="opacity:0.974" fill="#1b4d8c" d="M 2029.5,1531.5 C 2029.5,1550.17 2029.5,1568.83 2029.5,1587.5C 2021.89,1594.76 2015.89,1603.1 2011.5,1612.5C 2011.5,1589.83 2011.5,1567.17 2011.5,1544.5C 2016.78,1539.19 2022.78,1534.86 2029.5,1531.5 Z"/></g>
<g><path style="opacity:0.977" fill="#0c73ab" d="M 1598.5,1529.5 C 1605.82,1532.15 1612.48,1535.82 1618.5,1540.5C 1618.5,1559.83 1618.5,1579.17 1618.5,1598.5C 1611.81,1593.47 1605.14,1588.47 1598.5,1583.5C 1598.5,1565.5 1598.5,1547.5 1598.5,1529.5 Z"/></g>
<g><path style="opacity:0.979" fill="#0979b0" d="M 620.5,1533.5 C 627.176,1536.17 633.176,1539.83 638.5,1544.5C 638.5,1570.83 638.5,1597.17 638.5,1623.5C 633.738,1614.32 627.738,1605.99 620.5,1598.5C 620.5,1576.83 620.5,1555.17 620.5,1533.5 Z"/></g>
<g><path style="opacity:0.979" fill="#1d4786" d="M 1483.5,1535.5 C 1483.5,1560.17 1483.5,1584.83 1483.5,1609.5C 1462.2,1643.81 1462.2,1678.14 1483.5,1712.5C 1483.5,1737.17 1483.5,1761.83 1483.5,1786.5C 1476.08,1782.46 1469.41,1777.46 1463.5,1771.5C 1463.5,1697.83 1463.5,1624.17 1463.5,1550.5C 1469.08,1544.04 1475.75,1539.04 1483.5,1535.5 Z"/></g>
<g><path style="opacity:0.973" fill="#155c98" d="M 1836.5,1530.5 C 1836.5,1549.17 1836.5,1567.83 1836.5,1586.5C 1830.19,1592.48 1824.86,1599.14 1820.5,1606.5C 1820.5,1584.83 1820.5,1563.17 1820.5,1541.5C 1825.49,1537.34 1830.82,1533.67 1836.5,1530.5 Z"/></g>
<g><path style="opacity:0.996" fill="#087cb3" d="M 2122.5,1528.5 C 2129.89,1531.85 2136.55,1536.18 2142.5,1541.5C 2142.5,1625.83 2142.5,1710.17 2142.5,1794.5C 2139.17,1794.5 2135.83,1794.5 2132.5,1794.5C 2132.67,1738.17 2132.5,1681.83 2132,1625.5C 2130.49,1616.48 2127.32,1608.15 2122.5,1600.5C 2122.5,1576.5 2122.5,1552.5 2122.5,1528.5 Z"/></g>
<g><path style="opacity:0.977" fill="#1e4786" d="M 486.5,1538.5 C 486.5,1562.17 486.5,1585.83 486.5,1609.5C 468.827,1636.8 465.661,1665.8 477,1696.5C 480.022,1702.33 483.189,1708 486.5,1713.5C 486.5,1736.83 486.5,1760.17 486.5,1783.5C 478.907,1778.9 471.907,1773.57 465.5,1767.5C 465.5,1696.5 465.5,1625.5 465.5,1554.5C 471.907,1548.43 478.907,1543.1 486.5,1538.5 Z"/></g>
<g><path style="opacity:0.984" fill="#1d4786" d="M 1158.5,1539.5 C 1158.5,1563.17 1158.5,1586.83 1158.5,1610.5C 1154.32,1617.53 1150.65,1624.86 1147.5,1632.5C 1151.11,1633.49 1154.77,1633.82 1158.5,1633.5C 1158.5,1651.83 1158.5,1670.17 1158.5,1688.5C 1154.77,1688.18 1151.11,1688.51 1147.5,1689.5C 1150.65,1697.14 1154.32,1704.47 1158.5,1711.5C 1158.5,1735.17 1158.5,1758.83 1158.5,1782.5C 1150.75,1778.96 1144.08,1773.96 1138.5,1767.5C 1138.5,1696.5 1138.5,1625.5 1138.5,1554.5C 1144.08,1548.04 1150.75,1543.04 1158.5,1539.5 Z"/></g>
<g><path style="opacity:0.973" fill="#0979b0" d="M 1618.5,1540.5 C 1624.77,1544.44 1630.44,1549.11 1635.5,1554.5C 1635.5,1577.17 1635.5,1599.83 1635.5,1622.5C 1630.64,1613.97 1624.98,1605.97 1618.5,1598.5C 1618.5,1579.17 1618.5,1559.83 1618.5,1540.5 Z"/></g>
<g><path style="opacity:0.983" fill="#087bb2" d="M 1293.5,1533.5 C 1302.89,1538.19 1311.55,1543.85 1319.5,1550.5C 1319.5,1596.5 1319.5,1642.5 1319.5,1688.5C 1310.83,1688.5 1302.17,1688.5 1293.5,1688.5C 1293.5,1670.17 1293.5,1651.83 1293.5,1633.5C 1300.51,1633.67 1307.51,1633.5 1314.5,1633C 1309.65,1620.12 1302.65,1608.62 1293.5,1598.5C 1293.5,1576.83 1293.5,1555.17 1293.5,1533.5 Z"/></g>
<g><path style="opacity:0.992" fill="#0780b6" d="M 638.5,1544.5 C 645.919,1549.22 652.585,1554.89 658.5,1561.5C 658.5,1627.83 658.5,1694.17 658.5,1760.5C 652.585,1767.11 645.919,1772.78 638.5,1777.5C 638.5,1751.5 638.5,1725.5 638.5,1699.5C 649.167,1674.17 649.167,1648.83 638.5,1623.5C 638.5,1597.17 638.5,1570.83 638.5,1544.5 Z"/></g>
<g><path style="opacity:0.99" fill="#0681b7" d="M 1319.5,1550.5 C 1323.19,1553.86 1326.86,1557.2 1330.5,1560.5C 1330.5,1603.17 1330.5,1645.83 1330.5,1688.5C 1326.83,1688.5 1323.17,1688.5 1319.5,1688.5C 1319.5,1642.5 1319.5,1596.5 1319.5,1550.5 Z"/></g>
<g><path style="opacity:0.996" fill="#0583b9" d="M 2142.5,1541.5 C 2149.17,1546.17 2154.83,1551.83 2159.5,1558.5C 2159.5,1637.17 2159.5,1715.83 2159.5,1794.5C 2153.83,1794.5 2148.17,1794.5 2142.5,1794.5C 2142.5,1710.17 2142.5,1625.83 2142.5,1541.5 Z"/></g>
<g><path style="opacity:0.992" fill="#204181" d="M 1463.5,1550.5 C 1463.5,1624.17 1463.5,1697.83 1463.5,1771.5C 1459.91,1769.42 1456.75,1766.75 1454,1763.5C 1449.24,1758.58 1445.07,1753.24 1441.5,1747.5C 1441.5,1689.83 1441.5,1632.17 1441.5,1574.5C 1447.76,1565.57 1455.09,1557.57 1463.5,1550.5 Z"/></g>
<g><path style="opacity:0.99" fill="#204181" d="M 1138.5,1554.5 C 1138.5,1625.5 1138.5,1696.5 1138.5,1767.5C 1130.12,1761.46 1123.12,1754.12 1117.5,1745.5C 1117.5,1689.17 1117.5,1632.83 1117.5,1576.5C 1123.14,1567.89 1130.14,1560.56 1138.5,1554.5 Z"/></g>
<g><path style="opacity:0.992" fill="#204181" d="M 465.5,1554.5 C 465.5,1625.5 465.5,1696.5 465.5,1767.5C 457.399,1760.74 450.399,1753.07 444.5,1744.5C 444.5,1688.83 444.5,1633.17 444.5,1577.5C 450.422,1568.91 457.422,1561.24 465.5,1554.5 Z"/></g>
<g><path style="opacity:0.992" fill="#0486bb" d="M 658.5,1561.5 C 664.887,1567.55 670.554,1574.22 675.5,1581.5C 675.5,1634.5 675.5,1687.5 675.5,1740.5C 670.78,1747.92 665.113,1754.59 658.5,1760.5C 658.5,1694.17 658.5,1627.83 658.5,1561.5 Z"/></g>
<g><path style="opacity:0.994" fill="#028abe" d="M 2159.5,1558.5 C 2166.79,1566.8 2172.46,1576.14 2176.5,1586.5C 2176.5,1655.83 2176.5,1725.17 2176.5,1794.5C 2170.83,1794.5 2165.17,1794.5 2159.5,1794.5C 2159.5,1715.83 2159.5,1637.17 2159.5,1558.5 Z"/></g>
<g><path style="opacity:0.986" fill="#0486bb" d="M 1330.5,1560.5 C 1336.89,1566.55 1342.55,1573.22 1347.5,1580.5C 1347.5,1616.5 1347.5,1652.5 1347.5,1688.5C 1341.83,1688.5 1336.17,1688.5 1330.5,1688.5C 1330.5,1645.83 1330.5,1603.17 1330.5,1560.5 Z"/></g>
<g><path style="opacity:0.987" fill="#223b7d" d="M 1441.5,1574.5 C 1441.5,1632.17 1441.5,1689.83 1441.5,1747.5C 1422.81,1722.1 1413.48,1693.44 1413.5,1661.5C 1413.26,1629.22 1422.6,1600.22 1441.5,1574.5 Z"/></g>
<g><path style="opacity:0.988" fill="#223b7d" d="M 1117.5,1576.5 C 1117.5,1632.83 1117.5,1689.17 1117.5,1745.5C 1094.65,1715.46 1085.48,1681.46 1090,1643.5C 1093.05,1618.49 1102.22,1596.16 1117.5,1576.5 Z"/></g>
<g><path style="opacity:0.987" fill="#223b7d" d="M 444.5,1577.5 C 444.5,1633.17 444.5,1688.83 444.5,1744.5C 431.514,1728.43 423.014,1710.1 419,1689.5C 412.546,1654.56 417.879,1621.56 435,1590.5C 437.699,1585.74 440.866,1581.41 444.5,1577.5 Z"/></g>
<g><path style="opacity:0.986" fill="#028cc0" d="M 675.5,1581.5 C 696.615,1611.88 704.448,1645.54 699,1682.5C 696.311,1704.1 688.478,1723.43 675.5,1740.5C 675.5,1687.5 675.5,1634.5 675.5,1581.5 Z"/></g>
<g><path style="opacity:0.986" fill="#0090c3" d="M 2176.5,1586.5 C 2181.82,1597.11 2184.99,1608.44 2186,1620.5C 2186.5,1678.5 2186.67,1736.5 2186.5,1794.5C 2183.17,1794.5 2179.83,1794.5 2176.5,1794.5C 2176.5,1725.17 2176.5,1655.83 2176.5,1586.5 Z"/></g>
<g><path style="opacity:0.939" fill="#018ec2" d="M 1347.5,1580.5 C 1370.18,1613.26 1377.85,1649.26 1370.5,1688.5C 1362.83,1688.5 1355.17,1688.5 1347.5,1688.5C 1347.5,1652.5 1347.5,1616.5 1347.5,1580.5 Z"/></g>
<g><path style="opacity:0.973" fill="#1b4d8c" d="M 1158.5,1633.5 C 1166.17,1633.5 1173.83,1633.5 1181.5,1633.5C 1181.5,1651.83 1181.5,1670.17 1181.5,1688.5C 1173.83,1688.5 1166.17,1688.5 1158.5,1688.5C 1158.5,1670.17 1158.5,1651.83 1158.5,1633.5 Z"/></g>
<g><path style="opacity:0.973" fill="#185592" d="M 1181.5,1633.5 C 1189.5,1633.5 1197.5,1633.5 1205.5,1633.5C 1205.5,1651.83 1205.5,1670.17 1205.5,1688.5C 1197.5,1688.5 1189.5,1688.5 1181.5,1688.5C 1181.5,1670.17 1181.5,1651.83 1181.5,1633.5 Z"/></g>
<g><path style="opacity:0.973" fill="#145e9a" d="M 1205.5,1633.5 C 1216.17,1633.5 1226.83,1633.5 1237.5,1633.5C 1237.5,1651.83 1237.5,1670.17 1237.5,1688.5C 1226.83,1688.5 1216.17,1688.5 1205.5,1688.5C 1205.5,1670.17 1205.5,1651.83 1205.5,1633.5 Z"/></g>
<g><path style="opacity:0.973" fill="#1166a1" d="M 1237.5,1633.5 C 1244.5,1633.5 1251.5,1633.5 1258.5,1633.5C 1258.5,1651.83 1258.5,1670.17 1258.5,1688.5C 1251.5,1688.5 1244.5,1688.5 1237.5,1688.5C 1237.5,1670.17 1237.5,1651.83 1237.5,1633.5 Z"/></g>
<g><path style="opacity:0.973" fill="#0e6da6" d="M 1258.5,1633.5 C 1263.5,1633.5 1268.5,1633.5 1273.5,1633.5C 1273.5,1651.83 1273.5,1670.17 1273.5,1688.5C 1268.5,1688.5 1263.5,1688.5 1258.5,1688.5C 1258.5,1670.17 1258.5,1651.83 1258.5,1633.5 Z"/></g>
<g><path style="opacity:0.973" fill="#0c73ab" d="M 1273.5,1633.5 C 1280.17,1633.5 1286.83,1633.5 1293.5,1633.5C 1293.5,1651.83 1293.5,1670.17 1293.5,1688.5C 1286.83,1688.5 1280.17,1688.5 1273.5,1688.5C 1273.5,1670.17 1273.5,1651.83 1273.5,1633.5 Z"/></g>
<g><path style="opacity:0.978" fill="#0979b0" d="M 638.5,1699.5 C 638.5,1725.5 638.5,1751.5 638.5,1777.5C 633.176,1782.17 627.176,1785.83 620.5,1788.5C 620.5,1767.17 620.5,1745.83 620.5,1724.5C 627.307,1716.7 633.307,1708.37 638.5,1699.5 Z"/></g>
<g><path style="opacity:0.975" fill="#0979b0" d="M 1635.5,1700.5 C 1635.5,1722.83 1635.5,1745.17 1635.5,1767.5C 1633.71,1769.8 1631.71,1771.96 1629.5,1774C 1626.12,1777.01 1622.46,1779.51 1618.5,1781.5C 1618.5,1762.17 1618.5,1742.83 1618.5,1723.5C 1624.91,1716.33 1630.58,1708.66 1635.5,1700.5 Z"/></g>
<g><path style="opacity:0.98" fill="#1b4d8c" d="M 1158.5,1711.5 C 1165.17,1720.17 1172.83,1727.83 1181.5,1734.5C 1181.5,1754.5 1181.5,1774.5 1181.5,1794.5C 1173.07,1791.79 1165.41,1787.79 1158.5,1782.5C 1158.5,1758.83 1158.5,1735.17 1158.5,1711.5 Z"/></g>
<g><path style="opacity:0.981" fill="#1b4d8c" d="M 1483.5,1712.5 C 1489.85,1721.18 1497.52,1728.51 1506.5,1734.5C 1506.5,1755.17 1506.5,1775.83 1506.5,1796.5C 1498.19,1794.51 1490.52,1791.18 1483.5,1786.5C 1483.5,1761.83 1483.5,1737.17 1483.5,1712.5 Z"/></g>
<g><path style="opacity:0.98" fill="#1b4d8c" d="M 486.5,1713.5 C 493.201,1721.2 500.534,1728.2 508.5,1734.5C 508.5,1754.5 508.5,1774.5 508.5,1794.5C 500.888,1791.36 493.554,1787.69 486.5,1783.5C 486.5,1760.17 486.5,1736.83 486.5,1713.5 Z"/></g>
<g><path style="opacity:0.981" fill="#0979b0" d="M 1310.5,1718.5 C 1310.5,1738.17 1310.5,1757.83 1310.5,1777.5C 1305.34,1781.59 1299.67,1784.92 1293.5,1787.5C 1293.5,1765.83 1293.5,1744.17 1293.5,1722.5C 1296.15,1719.35 1298.98,1716.35 1302,1713.5C 1304.93,1715.05 1307.76,1716.71 1310.5,1718.5 Z"/></g>
<g><path style="opacity:0.971" fill="#0680b6" d="M 1310.5,1718.5 C 1322.78,1726.12 1334.78,1734.12 1346.5,1742.5C 1336.44,1756.23 1324.44,1767.9 1310.5,1777.5C 1310.5,1757.83 1310.5,1738.17 1310.5,1718.5 Z"/></g>
<g><path style="opacity:0.981" fill="#0c72aa" d="M 1293.5,1722.5 C 1293.5,1744.17 1293.5,1765.83 1293.5,1787.5C 1287.13,1791.01 1280.47,1794.01 1273.5,1796.5C 1273.5,1777.17 1273.5,1757.83 1273.5,1738.5C 1280.43,1733.58 1287.1,1728.24 1293.5,1722.5 Z"/></g>
<g><path style="opacity:0.984" fill="#0e6fa7" d="M 620.5,1724.5 C 620.5,1745.83 620.5,1767.17 620.5,1788.5C 609.61,1794.46 597.944,1798.46 585.5,1800.5C 585.5,1782.17 585.5,1763.83 585.5,1745.5C 598.594,1740.79 610.26,1733.79 620.5,1724.5 Z"/></g>
<g><path style="opacity:0.983" fill="#0e6da6" d="M 1273.5,1738.5 C 1273.5,1757.83 1273.5,1777.17 1273.5,1796.5C 1268.44,1797.68 1263.44,1799.01 1258.5,1800.5C 1258.5,1781.83 1258.5,1763.17 1258.5,1744.5C 1263.61,1742.78 1268.61,1740.78 1273.5,1738.5 Z"/></g>
<g><path style="opacity:0.98" fill="#0e6fa7" d="M 1618.5,1723.5 C 1618.5,1742.83 1618.5,1762.17 1618.5,1781.5C 1608.08,1789.54 1596.42,1795.21 1583.5,1798.5C 1583.5,1780.83 1583.5,1763.17 1583.5,1745.5C 1596.7,1740.64 1608.37,1733.3 1618.5,1723.5 Z"/></g>
<g><path style="opacity:0.986" fill="#185592" d="M 240.5,1740.5 C 246.167,1740.5 251.833,1740.5 257.5,1740.5C 257.5,1758.5 257.5,1776.5 257.5,1794.5C 251.833,1794.5 246.167,1794.5 240.5,1794.5C 240.5,1776.5 240.5,1758.5 240.5,1740.5 Z"/></g>
<g><path style="opacity:0.986" fill="#145e9a" d="M 257.5,1740.5 C 265.5,1740.5 273.5,1740.5 281.5,1740.5C 281.5,1758.5 281.5,1776.5 281.5,1794.5C 273.5,1794.5 265.5,1794.5 257.5,1794.5C 257.5,1776.5 257.5,1758.5 257.5,1740.5 Z"/></g>
<g><path style="opacity:0.986" fill="#1166a1" d="M 281.5,1740.5 C 286.5,1740.5 291.5,1740.5 296.5,1740.5C 296.5,1758.5 296.5,1776.5 296.5,1794.5C 291.5,1794.5 286.5,1794.5 281.5,1794.5C 281.5,1776.5 281.5,1758.5 281.5,1740.5 Z"/></g>
<g><path style="opacity:0.986" fill="#0d71aa" d="M 296.5,1740.5 C 305.167,1740.5 313.833,1740.5 322.5,1740.5C 322.5,1758.5 322.5,1776.5 322.5,1794.5C 313.833,1794.5 305.167,1794.5 296.5,1794.5C 296.5,1776.5 296.5,1758.5 296.5,1740.5 Z"/></g>
<g><path style="opacity:0.986" fill="#087db3" d="M 322.5,1740.5 C 330.167,1740.5 337.833,1740.5 345.5,1740.5C 345.5,1758.5 345.5,1776.5 345.5,1794.5C 337.833,1794.5 330.167,1794.5 322.5,1794.5C 322.5,1776.5 322.5,1758.5 322.5,1740.5 Z"/></g>
<g><path style="opacity:0.986" fill="#0585ba" d="M 345.5,1740.5 C 350.833,1740.5 356.167,1740.5 361.5,1740.5C 361.5,1758.5 361.5,1776.5 361.5,1794.5C 356.167,1794.5 350.833,1794.5 345.5,1794.5C 345.5,1776.5 345.5,1758.5 345.5,1740.5 Z"/></g>
<g><path style="opacity:0.986" fill="#018ec2" d="M 361.5,1740.5 C 367.5,1740.5 373.5,1740.5 379.5,1740.5C 379.5,1758.5 379.5,1776.5 379.5,1794.5C 373.5,1794.5 367.5,1794.5 361.5,1794.5C 361.5,1776.5 361.5,1758.5 361.5,1740.5 Z"/></g>
<g><path style="opacity:0.98" fill="#185592" d="M 508.5,1734.5 C 515.987,1739.24 523.987,1742.91 532.5,1745.5C 532.5,1763.83 532.5,1782.17 532.5,1800.5C 524.262,1799.44 516.262,1797.44 508.5,1794.5C 508.5,1774.5 508.5,1754.5 508.5,1734.5 Z"/></g>
<g><path style="opacity:0.985" fill="#185592" d="M 1181.5,1734.5 C 1188.96,1739.23 1196.96,1742.9 1205.5,1745.5C 1205.5,1763.83 1205.5,1782.17 1205.5,1800.5C 1197.25,1799.44 1189.25,1797.44 1181.5,1794.5C 1181.5,1774.5 1181.5,1754.5 1181.5,1734.5 Z"/></g>
<g><path style="opacity:0.983" fill="#185592" d="M 1506.5,1734.5 C 1513.49,1739.5 1521.16,1743.16 1529.5,1745.5C 1529.5,1764.17 1529.5,1782.83 1529.5,1801.5C 1521.42,1801.21 1513.75,1799.55 1506.5,1796.5C 1506.5,1775.83 1506.5,1755.17 1506.5,1734.5 Z"/></g>
<g><path style="opacity:0.984" fill="#1166a1" d="M 1258.5,1744.5 C 1258.5,1763.17 1258.5,1781.83 1258.5,1800.5C 1251.56,1801.73 1244.56,1802.4 1237.5,1802.5C 1237.5,1784.83 1237.5,1767.17 1237.5,1749.5C 1244.68,1748.62 1251.68,1746.96 1258.5,1744.5 Z"/></g>
<g><path style="opacity:0.983" fill="#1166a1" d="M 1583.5,1745.5 C 1583.5,1763.17 1583.5,1780.83 1583.5,1798.5C 1576.55,1800.09 1569.55,1801.42 1562.5,1802.5C 1562.5,1784.83 1562.5,1767.17 1562.5,1749.5C 1569.52,1748.43 1576.52,1747.1 1583.5,1745.5 Z"/></g>
<g><path style="opacity:0.986" fill="#1166a0" d="M 585.5,1745.5 C 585.5,1763.83 585.5,1782.17 585.5,1800.5C 578.599,1801.99 571.599,1802.66 564.5,1802.5C 564.5,1784.83 564.5,1767.17 564.5,1749.5C 571.595,1748.68 578.595,1747.35 585.5,1745.5 Z"/></g>
<g><path style="opacity:0.993" fill="#145e9a" d="M 532.5,1745.5 C 542.902,1748.6 553.569,1749.94 564.5,1749.5C 564.5,1767.17 564.5,1784.83 564.5,1802.5C 553.705,1802.94 543.038,1802.27 532.5,1800.5C 532.5,1782.17 532.5,1763.83 532.5,1745.5 Z"/></g>
<g><path style="opacity:0.993" fill="#145e9a" d="M 1205.5,1745.5 C 1215.92,1748.61 1226.59,1749.94 1237.5,1749.5C 1237.5,1767.17 1237.5,1784.83 1237.5,1802.5C 1229.16,1802.67 1220.83,1802.5 1212.5,1802C 1209.96,1801.81 1207.63,1801.31 1205.5,1800.5C 1205.5,1782.17 1205.5,1763.83 1205.5,1745.5 Z"/></g>
<g><path style="opacity:0.994" fill="#145e9a" d="M 1529.5,1745.5 C 1540.25,1748.55 1551.25,1749.88 1562.5,1749.5C 1562.5,1767.17 1562.5,1784.83 1562.5,1802.5C 1551.32,1802.83 1540.32,1802.49 1529.5,1801.5C 1529.5,1782.83 1529.5,1764.17 1529.5,1745.5 Z"/></g>
</svg>
